REM DIRINDEX 1\2,1\3,1\4,1\6,1\5\7,1\5\8
REM DIRNAME cjc114,folder01,folder02,folder03,folder04,folder05,folder06,folder07
TITLE ""
FILE "DB4500_5th_1A_14.mp3" MP3
  TRACK 01 AUDIO
    TITLE "0:"
    INDEX 01 00:00:00
  TRACK 02 AUDIO
    TITLE "2:cjc114_0380"
    INDEX 01 00:00:01
  TRACK 03 AUDIO
    TITLE "0:"
    INDEX 01 00:01:40
  TRACK 04 AUDIO
    TITLE "3:cjc114_0381"
    INDEX 01 00:01:68
  TRACK 05 AUDIO
    TITLE "0:"
    INDEX 01 00:02:71
  TRACK 06 AUDIO
    TITLE "4:cjc114_0382"
    INDEX 01 00:03:33
  TRACK 07 AUDIO
    TITLE "0:"
    INDEX 01 00:07:13
  TRACK 08 AUDIO
    TITLE "2:cjc114_0383"
    INDEX 01 00:07:68
  TRACK 09 AUDIO
    TITLE "0:"
    INDEX 01 00:09:02
  TRACK 10 AUDIO
    TITLE "3:cjc114_0384"
    INDEX 01 00:09:32
  TRACK 11 AUDIO
    TITLE "0:"
    INDEX 01 00:10:53
  TRACK 12 AUDIO
    TITLE "4:cjc114_0385"
    INDEX 01 00:10:74
  TRACK 13 AUDIO
    TITLE "0:"
    INDEX 01 00:14:19
  TRACK 14 AUDIO
    TITLE "2:cjc114_0386"
    INDEX 01 00:14:47
  TRACK 15 AUDIO
    TITLE "0:"
    INDEX 01 00:15:60
  TRACK 16 AUDIO
    TITLE "3:cjc114_0387"
    INDEX 01 00:16:12
  TRACK 17 AUDIO
    TITLE "0:"
    INDEX 01 00:17:14
  TRACK 18 AUDIO
    TITLE "4:cjc114_0388"
    INDEX 01 00:17:69
  TRACK 19 AUDIO
    TITLE "0:"
    INDEX 01 00:20:10
  TRACK 20 AUDIO
    TITLE "2:cjc114_0389"
    INDEX 01 00:20:39
  TRACK 21 AUDIO
    TITLE "0:"
    INDEX 01 00:21:57
  TRACK 22 AUDIO
    TITLE "3:cjc114_0390"
    INDEX 01 00:22:09
  TRACK 23 AUDIO
    TITLE "0:"
    INDEX 01 00:23:32
  TRACK 24 AUDIO
    TITLE "4:cjc114_0391"
    INDEX 01 00:24:12
  TRACK 25 AUDIO
    TITLE "0:"
    INDEX 01 00:27:49
  TRACK 26 AUDIO
    TITLE "2:cjc114_0392"
    INDEX 01 00:28:33
  TRACK 27 AUDIO
    TITLE "0:"
    INDEX 01 00:29:48
  TRACK 28 AUDIO
    TITLE "3:cjc114_0393"
    INDEX 01 00:29:72
  TRACK 29 AUDIO
    TITLE "0:"
    INDEX 01 00:32:03
  TRACK 30 AUDIO
    TITLE "4:cjc114_0394"
    INDEX 01 00:32:27
  TRACK 31 AUDIO
    TITLE "0:"
    INDEX 01 00:35:63
  TRACK 32 AUDIO
    TITLE "2:cjc114_0395"
    INDEX 01 00:36:38
  TRACK 33 AUDIO
    TITLE "0:"
    INDEX 01 00:37:32
  TRACK 34 AUDIO
    TITLE "3:cjc114_0396"
    INDEX 01 00:37:54
  TRACK 35 AUDIO
    TITLE "0:"
    INDEX 01 00:39:31
  TRACK 36 AUDIO
    TITLE "4:cjc114_0397"
    INDEX 01 00:39:54
  TRACK 37 AUDIO
    TITLE "0:"
    INDEX 01 00:41:44
  TRACK 38 AUDIO
    TITLE "2:cjc114_0398"
    INDEX 01 00:42:18
  TRACK 39 AUDIO
    TITLE "0:"
    INDEX 01 00:43:25
  TRACK 40 AUDIO
    TITLE "3:cjc114_0399"
    INDEX 01 00:43:50
  TRACK 41 AUDIO
    TITLE "0:"
    INDEX 01 00:46:06
  TRACK 42 AUDIO
    TITLE "4:cjc114_0400"
    INDEX 01 00:46:27
  TRACK 43 AUDIO
    TITLE "0:"
    INDEX 01 00:49:27
  TRACK 44 AUDIO
    TITLE "2:cjc114_0401"
    INDEX 01 00:49:74
  TRACK 45 AUDIO
    TITLE "0:"
    INDEX 01 00:51:24
  TRACK 46 AUDIO
    TITLE "3:cjc114_0402"
    INDEX 01 00:51:46
  TRACK 47 AUDIO
    TITLE "0:"
    INDEX 01 00:52:51
  TRACK 48 AUDIO
    TITLE "4:cjc114_0403"
    INDEX 01 00:53:02
  TRACK 49 AUDIO
    TITLE "0:"
    INDEX 01 00:56:14
  TRACK 50 AUDIO
    TITLE "2:cjc114_0404"
    INDEX 01 00:56:61
  TRACK 51 AUDIO
    TITLE "0:"
    INDEX 01 00:57:70
  TRACK 52 AUDIO
    TITLE "3:cjc114_0405"
    INDEX 01 00:58:20
  TRACK 53 AUDIO
    TITLE "0:"
    INDEX 01 00:59:61
  TRACK 54 AUDIO
    TITLE "4:cjc114_0406"
    INDEX 01 01:00:06
  TRACK 55 AUDIO
    TITLE "0:"
    INDEX 01 01:04:01
  TRACK 56 AUDIO
    TITLE "2:cjc114_0407"
    INDEX 01 01:04:52
  TRACK 57 AUDIO
    TITLE "0:"
    INDEX 01 01:05:42
  TRACK 58 AUDIO
    TITLE "3:cjc114_0408"
    INDEX 01 01:05:62
  TRACK 59 AUDIO
    TITLE "0:"
    INDEX 01 01:06:73
  TRACK 60 AUDIO
    TITLE "4:cjc114_0409"
    INDEX 01 01:07:21
  TRACK 61 AUDIO
    TITLE "0:"
    INDEX 01 01:10:00
  TRACK 62 AUDIO
    TITLE "2:cjc114_0410"
    INDEX 01 01:10:51
  TRACK 63 AUDIO
    TITLE "0:"
    INDEX 01 01:12:05
  TRACK 64 AUDIO
    TITLE "3:cjc114_0411"
    INDEX 01 01:12:24
  TRACK 65 AUDIO
    TITLE "0:"
    INDEX 01 01:13:55
  TRACK 66 AUDIO
    TITLE "4:cjc114_0412"
    INDEX 01 01:14:04
  TRACK 67 AUDIO
    TITLE "0:"
    INDEX 01 01:17:41
